<svg width="85" height="21" viewBox="0 0 85 21" fill="none" xmlns="http://www.w3.org/2000/svg">
<path d="M84.9998 10.84C84.9998 11.1696 84.8687 11.4728 84.6067 11.7233L75.9191 20.4378C75.6307 20.7279 75.3556 20.8333 75.0411 20.8333C74.3991 20.8333 73.9011 20.3587 73.9011 19.6995C73.9011 19.3831 74.0059 19.0799 74.2156 18.8689L77.1508 15.863L82.3529 11.0904L82.6149 11.7496L78.3956 12.0133H1.81962C1.13823 12.0133 0.666504 11.5255 0.666504 10.84C0.666504 10.1544 1.13823 9.66659 1.81962 9.66659H78.3956L82.6149 9.93027L82.3529 10.5763L77.1508 5.81696L74.2156 2.81099C74.0059 2.61321 73.9011 2.29676 73.9011 1.98045C73.9011 1.32123 74.3991 0.84656 75.0411 0.84656C75.3556 0.84656 75.6307 0.965227 75.8929 1.21579L84.6067 9.95663C84.8687 10.2071 84.9998 10.5104 84.9998 10.84Z" fill="#1D1D1B" fill-opacity="0.85"/>
</svg>
